<svg width="16" height="16" viewBox="0 0 16 16" fill="none" xmlns="http://www.w3.org/2000/svg">
<g clip-path="url(#clip0_252_25)">
<path d="M15.8541 12.8538L11.0001 7.99983L15.8541 3.14583C15.9471 3.05168 15.9992 2.92467 15.9992 2.79233C15.9992 2.65999 15.9471 2.53298 15.8541 2.43883L13.5611 0.145832C13.5147 0.0992995 13.4596 0.0623778 13.399 0.0371848C13.3383 0.0119919 13.2733 -0.000976563 13.2076 -0.000976562C13.1419 -0.000976562 13.0769 0.0119919 13.0162 0.0371848C12.9555 0.0623778 12.9004 0.0992995 12.8541 0.145832L8.00008 4.99983L3.14608 0.145832C3.05231 0.0520965 2.92516 -0.000561144 2.79258 -0.000561144C2.65999 -0.000561144 2.53284 0.0520965 2.43908 0.145832L0.146076 2.43883C0.0995436 2.48519 0.0626219 2.54028 0.0374289 2.60095C0.012236 2.66161 -0.000732422 2.72665 -0.000732422 2.79233C-0.000732422 2.85802 0.012236 2.92306 0.0374289 2.98372C0.0626219 3.04438 0.0995436 3.09947 0.146076 3.14583L5.00008 7.99983L0.146076 12.8538C0.0523407 12.9476 -0.000317003 13.0748 -0.000317003 13.2073C-0.000317003 13.3399 0.0523407 13.4671 0.146076 13.5608L2.43908 15.8538C2.48544 15.9004 2.54053 15.9373 2.60119 15.9625C2.66185 15.9877 2.72689 16.0006 2.79258 16.0006C2.85826 16.0006 2.9233 15.9877 2.98396 15.9625C3.04462 15.9373 3.09972 15.9004 3.14608 15.8538L8.00008 10.9998L12.8541 15.8538C12.9478 15.9476 13.075 16.0002 13.2076 16.0002C13.3402 16.0002 13.4673 15.9476 13.5611 15.8538L15.8541 13.5608C15.9006 13.5145 15.9375 13.4594 15.9627 13.3987C15.9879 13.3381 16.0009 13.273 16.0009 13.2073C16.0009 13.1416 15.9879 13.0766 15.9627 13.0159C15.9375 12.9553 15.9006 12.9002 15.8541 12.8538V12.8538Z" fill="#222222"/>
</g>
<defs>
<clipPath id="clip0_252_25">
<rect width="16" height="16" fill="white"/>
</clipPath>
</defs>
</svg>
