<svg width="36" height="36" viewBox="0 0 36 36" fill="none" xmlns="http://www.w3.org/2000/svg">
<path d="M11 16.5L10 19.6H12L11 16.5Z" fill="#222222"/>
<path d="M30.3008 3H14.3008V8H18.3008V10H5.30078C3.60078 10 2.30078 11.3 2.30078 13V24C2.30078 25.7 3.60078 27 5.30078 27H6.30078V32.1L12.6008 27H19.3008V20H30.3008C32.0008 20 33.3008 18.7 33.3008 17V6C33.3008 4.3 32.0008 3 30.3008 3V3ZM13.1008 22.9L12.6008 21.3H9.50078L8.90078 22.9H6.50078L9.80078 14H12.2008L15.5008 22.9H13.1008ZM28.3008 15V17C27.0008 17 25.6008 16.6 24.4008 16C23.2008 16.6 21.8008 16.9 20.4008 17L20.3008 15C21.0008 15 21.7008 14.9 22.4008 14.7C21.5008 13.8 20.9008 12.7 20.6008 11.5H22.7008C23.0008 12.4 23.6008 13.1 24.3008 13.7C25.4008 12.8 26.1008 11.5 26.2008 10H20.2008V8H23.2008V6H25.2008V8H28.5008L28.6008 9C28.7008 11.1 27.9008 13.2 26.4008 14.7C27.1008 14.9 27.7008 15 28.3008 15V15Z" fill="#222222"/>
</svg>
