<svg width="322" height="322" viewBox="0 0 322 322" fill="none" xmlns="http://www.w3.org/2000/svg">
<path d="M160.865 26.8335C86.8045 26.8335 26.832 86.9402 26.832 161C26.832 235.06 86.8045 295.167 160.865 295.167C235.059 295.167 295.165 235.06 295.165 161C295.165 86.9402 235.059 26.8335 160.865 26.8335ZM253.842 107.333H214.263C210.064 90.7164 203.846 74.6759 195.748 59.5702C220.221 67.9959 240.844 84.9508 253.842 107.333ZM160.999 54.2035C172.135 70.3035 180.855 88.1477 186.625 107.333H135.373C141.142 88.1477 149.863 70.3035 160.999 54.2035ZM57.1537 187.833C55.007 179.247 53.6654 170.258 53.6654 161C53.6654 151.743 55.007 142.753 57.1537 134.167H102.502C101.429 143.022 100.624 151.877 100.624 161C100.624 170.123 101.429 178.978 102.502 187.833H57.1537ZM68.1554 214.667H107.735C112.028 231.438 118.2 247.538 126.25 262.43C101.75 254.051 81.1136 237.084 68.1554 214.667V214.667ZM107.735 107.333H68.1554C81.1136 84.9166 101.75 67.9498 126.25 59.5702C118.152 74.6759 111.934 90.7164 107.735 107.333V107.333ZM160.999 267.797C149.863 251.697 141.142 233.853 135.373 214.667H186.625C180.855 233.853 172.135 251.697 160.999 267.797ZM192.394 187.833H129.604C128.396 178.978 127.457 170.123 127.457 161C127.457 151.877 128.396 142.888 129.604 134.167H192.394C193.601 142.888 194.54 151.877 194.54 161C194.54 170.123 193.601 178.978 192.394 187.833ZM195.748 262.43C203.798 247.538 209.97 231.438 214.263 214.667H253.842C240.844 237.05 220.221 254.004 195.748 262.43V262.43ZM219.495 187.833C220.569 178.978 221.374 170.123 221.374 161C221.374 151.877 220.569 143.022 219.495 134.167H264.844C266.99 142.753 268.332 151.743 268.332 161C268.332 170.258 266.99 179.247 264.844 187.833H219.495Z" fill="#222222"/>
</svg>
