<svg id="Calque_1" data-name="Calque 1" xmlns="http://www.w3.org/2000/svg" viewBox="0 0 112.38 137.4"><defs><style>.cls-1{fill:#fff;}</style></defs><path class="cls-1" d="M558.46,1456.07c-24.4.33-50.39-25.42-50-56.7a56,56,0,0,1,56.19-55.65c31.55.14,56,24.83,56.19,56.42A53.61,53.61,0,0,1,605,1439C594,1450.19,580.45,1456.05,558.46,1456.07Zm-2.55-98.34c3,0,5.23-2,7.89-2.91.33-.11.45-.81.83-1.54-1.34.21-2,1.69-3,.32-.84-1.15-.48-2,.29-2.95.55-.67,1.06-1.35,1.59-2l-.17-.53c-3.19.49-6.37,1-9.56,1.48a16.26,16.26,0,0,0-3,.64q-4,1.44-7.83,3.09a3.82,3.82,0,0,0-1.76,1.48c-1.49,2.71-2.83,5.5-4.24,8.25-1.17,2.28-1.69,2.36-3.43.34a26.73,26.73,0,0,1-2-3.17,24.6,24.6,0,0,0-2.16,2.75,15.5,15.5,0,0,0-1,2.75c-.76,2.26-1.52,4.52-2.25,6.8-.68,2.12-1.3,4.27-2,6.39-.95,2.89-2.14,5.71-2.88,8.65-.62,2.48-1.4,4.72-3.53,6.29-1,.71-1.88,1.49-2.83,2.22-2.18,1.69-2.74,5.36-1,7.35a16.64,16.64,0,0,0,8,5,2.89,2.89,0,0,1,1.74,1.44,47.9,47.9,0,0,1,1.62,5.31A12.28,12.28,0,0,1,526,1419a47.65,47.65,0,0,1-1.11,8.17c-.61,2.54-1,4.71,1.08,6.9a56.74,56.74,0,0,0,12.34,10.17,60.24,60.24,0,0,0,12.39,5.26,48.57,48.57,0,0,0,13.15,2,53,53,0,0,0,11.45-1.3,47.87,47.87,0,0,0,9.4-2.77,55.31,55.31,0,0,0,12.41-7.48A48.7,48.7,0,0,0,608.47,1427a49.35,49.35,0,0,0,5.44-12.27,45,45,0,0,0,2.07-11.28,120.15,120.15,0,0,0-.73-13.39,2.73,2.73,0,0,0-1.29-1.66,5.47,5.47,0,0,0-2.17-.68c-1-.14-2-.13-3-.19A3.43,3.43,0,0,0,610,1389c.48.35,1,.64,1.48,1a3.34,3.34,0,0,1,1.1,4.18c-2.37,4.67-5,9.16-8.78,12.87-2.89,2.8-6.33,4-7.89-1.68-.9-3.22-2.5-6.24-3.66-9.39-1-2.59-2.46-5-2-8a2.54,2.54,0,0,0-1.13-1.93c-1.64-1-3.47-1.8-5.15-2.8a15.07,15.07,0,0,1-3.81-2.8c-2.3-2.7-4.31-5.64-6.53-8.41-1-1.29-2.16-2.65-4.18-2a4.25,4.25,0,0,0,0,.57,1.58,1.58,0,0,0,.15.48c1,1.87.39,3.05-1.67,3.25-.39,0-1.26-.81-1.2-.93.89-2-.56-3.27-1.22-4.85-1.25-3-3.74-1.91-5.8-1.91-1.5,0-1.6,1.58-2,2.73-.51,1.42-.88,3.16-2.43,3.7a29.61,29.61,0,0,1-5.78,1.16,1.5,1.5,0,0,1-1.84-1.64c0-1.6,0-3.21.09-4.82a1.37,1.37,0,0,1,.61-1,9,9,0,0,1,3-.82c2.78,0,3.12-1.44,3.73-4.13-.7-.64-2.8.59-2.34-1.6l.39.21,2.84-2.73Zm9.63-2.7a18.36,18.36,0,0,0,8.24-5.62c-2.18-.55-4.1-.9-5.57.84C569.15,1352.83,566.46,1353.17,565.54,1355Z" transform="translate(-508.46 -1343.72)"/><path class="cls-1" d="M600.15,1469.8l.5,8.5c.18-.11.1,0,0,0-3.34.88-4.3.25-4.46-3.21-.18-3.72-.17-7.45-.29-11.16-.07-2.21,2-2,3.14-2.79,1-.62,1.57.36,2,1,1.27,1.84,2.48,3.71,3.79,5.67l3.78-6.16c.11-.18.15-.45.31-.56.75-.53,3.66.8,3.76,1.74a19.59,19.59,0,0,1,.06,2.17c0,4.65,0,9.31,0,14.09l-4.21,1V1469l-.43-.11c-.59,1.17-1.26,2.31-1.76,3.52s-1,1.87-2.36,1.82-1.38-1.37-2-2.11a14.7,14.7,0,0,1-1.28-2.5Z" transform="translate(-508.46 -1343.72)"/><path class="cls-1" d="M572.7,1468.41V1462c1-.33,1.82-.69,2.71-.92,1.38-.35,2.22.2,2.18,1.64-.13,4.75-.35,9.5-.61,14.25a1.69,1.69,0,0,1-.9,1.2c-2.13.84-3.3.15-4.15-1.94s-1.84-3.87-2.78-5.8l-.42,0v8.5a12.54,12.54,0,0,1-2.92.73,1.83,1.83,0,0,1-1.32-1.18q-.51-6.78-.77-13.58a2.24,2.24,0,0,1,.86-1.66c2.73-1.68,4.68-.91,6.35,2.39.46.9.9,1.82,1.34,2.74Z" transform="translate(-508.46 -1343.72)"/><path class="cls-1" d="M550.46,1470.56c1.13,1.83,2.24,3.68,3.39,5.5s.54,2.07-1,3.07a9,9,0,0,1-2.17.79l-3.88-7.46-.8.22c0,1.34,0,2.68,0,4,0,2.08-.3,2.29-2.38,2-.54-.07-1.07-.19-1.72-.32,0-1.7.09-3.31,0-4.9q-.31-4.56-.82-9.09a2,2,0,0,1,1.1-2.25,9.79,9.79,0,0,1,7.77-.76c3.87,1.25,3.82,6.48,1.25,8.47C551,1470.06,550.74,1470.3,550.46,1470.56Zm-4.24-1.45a2.46,2.46,0,0,0,2.34-2.65,2.38,2.38,0,0,0-2.34-2.7Z" transform="translate(-508.46 -1343.72)"/><path class="cls-1" d="M524.51,1468.22c-.57,4.1-1.2,7.51-4.27,9.76-3.82,2.79-8.3.93-9.37-3.62a13.3,13.3,0,0,1,.22-7,7.63,7.63,0,0,1,5.66-5.49c2.48-.62,4.89-.14,6.26,2.33A25.58,25.58,0,0,1,524.51,1468.22Zm-4.84,2.16-.38-.07a13.83,13.83,0,0,0-.08-3.47,3.11,3.11,0,0,0-1.72-1.8c-.89-.33-1.3.42-1.61,1.36a12.24,12.24,0,0,0,.16,8.66,1.7,1.7,0,0,0,1.25.88,1.63,1.63,0,0,0,1.29-.83C519.05,1473.56,519.32,1472,519.67,1470.38Z" transform="translate(-508.46 -1343.72)"/><path class="cls-1" d="M590.81,1481.07c-1,.19-1.47-.25-1.4-1.36a10,10,0,0,0-.07-1.33c-.26-2.65-.85-2.88-3.46-2.71-2,.13-2.68,1.18-3.2,2.77-.11.35-.71.85-1,.79a8.39,8.39,0,0,1-2.33-1c-1-.63-.53-1.31-.13-2.21,1.52-3.41,2.85-6.9,4.25-10.36a2.81,2.81,0,0,0,.09-.49c.49-2.54,2.19-3.64,4.42-2.4,1.07.6,1.8,2.18,2.24,3.46,1.42,4.22,2.67,8.5,3.91,12.78.37,1.26-.84,1.5-1.62,1.86A5.76,5.76,0,0,1,590.81,1481.07Zm-5.83-8.6h2.83l-1.13-4h-.51Z" transform="translate(-508.46 -1343.72)"/><path class="cls-1" d="M534.45,1471h4.3c.3,2.71.6,5.38.94,8.35-1.06,0-1.87,0-2.68,0-.25,0-.71-.11-.74-.24-.6-2.75-2-.91-2.87-.39-3.33,2-7.22-.88-7.38-4.18-.15-3.09-.23-6.15,1.66-8.88s4.81-4.9,8.59-2.87c1.07.56,1.6,2.15,2.34,3.29a.81.81,0,0,1-.06.64c-.74,1.31-2.06,1-3.15.88-.59,0-1.18-.68-1.69-1.14a12.62,12.62,0,0,1-1.22-1.4c-.47.54-1.3,1.07-1.34,1.64a56.58,56.58,0,0,0,0,7.48c0,.5,1.1,1.32,1.65,1.29a2.33,2.33,0,0,0,1.62-1.43A10.26,10.26,0,0,0,534.45,1471Z" transform="translate(-508.46 -1343.72)"/><path class="cls-1" d="M619.65,1479c-3.86.79-4.1.59-4.16-2.86-.07-3.78-.11-7.56-.27-11.33-.08-1.74,1-2,2.26-2.11,1.82-.16,2.78.42,2.74,1.79C620.09,1469.36,619.85,1474.22,619.65,1479Z" transform="translate(-508.46 -1343.72)"/><path class="cls-1" d="M560.18,1479.25h-3.27c-.26-3.4-.53-6.75-.76-10.11-.09-1.38-.09-2.77-.13-4.15,0-1.7.59-2.27,2.57-2.31s2.43.32,2.43,2.22c0,3.1,0,6.21-.12,9.31A49.27,49.27,0,0,1,560.18,1479.25Z" transform="translate(-508.46 -1343.72)"/><path class="cls-1" d="M556,1357.69l-2.84,2.73-.39-.21c-.46,2.19,1.64,1,2.34,1.6-.61,2.69-.95,4.08-3.73,4.13a9,9,0,0,0-3,.82,1.37,1.37,0,0,0-.61,1c-.09,1.61-.1,3.22-.09,4.82a1.5,1.5,0,0,0,1.84,1.64,29.61,29.61,0,0,0,5.78-1.16c1.55-.54,1.92-2.28,2.43-3.7.4-1.15.5-2.73,2-2.73,2.06,0,4.55-1.11,5.8,1.91.66,1.58,2.11,2.86,1.22,4.85-.06.12.81,1,1.2.93,2.06-.2,2.62-1.38,1.67-3.25a1.58,1.58,0,0,1-.15-.48,4.25,4.25,0,0,1,0-.57c2-.68,3.15.68,4.18,2,2.22,2.77,4.23,5.71,6.53,8.41a15.07,15.07,0,0,0,3.81,2.8c1.68,1,3.51,1.75,5.15,2.8a2.54,2.54,0,0,1,1.13,1.93c-.41,3,1.09,5.43,2,8,1.16,3.15,2.76,6.17,3.66,9.39,1.56,5.64,5,4.48,7.89,1.68,3.83-3.71,6.41-8.2,8.78-12.87a3.34,3.34,0,0,0-1.1-4.18c-.48-.36-1-.65-1.48-1a3.43,3.43,0,0,1-1.25-1.48c1,.06,2,0,3,.19a5.47,5.47,0,0,1,2.17.68,2.73,2.73,0,0,1,1.29,1.66,120.15,120.15,0,0,1,.73,13.39,45,45,0,0,1-2.07,11.28,49.35,49.35,0,0,1-5.44,12.27,48.7,48.7,0,0,1-11.37,12.89,55.31,55.31,0,0,1-12.41,7.48,47.87,47.87,0,0,1-9.4,2.77,53,53,0,0,1-11.45,1.3,48.57,48.57,0,0,1-13.15-2,60.24,60.24,0,0,1-12.39-5.26A56.74,56.74,0,0,1,526,1434c-2.1-2.19-1.69-4.36-1.08-6.9A47.65,47.65,0,0,0,526,1419a12.28,12.28,0,0,0-.81-3.83,47.9,47.9,0,0,0-1.62-5.31,2.89,2.89,0,0,0-1.74-1.44,16.64,16.64,0,0,1-8-5c-1.78-2-1.22-5.66,1-7.35,1-.73,1.87-1.51,2.83-2.22,2.13-1.57,2.91-3.81,3.53-6.29.74-2.94,1.93-5.76,2.88-8.65.7-2.12,1.32-4.27,2-6.39.73-2.28,1.49-4.54,2.25-6.8a15.5,15.5,0,0,1,1-2.75,24.6,24.6,0,0,1,2.16-2.75,26.73,26.73,0,0,0,2,3.17c1.74,2,2.26,1.94,3.43-.34,1.41-2.75,2.75-5.54,4.24-8.25a3.82,3.82,0,0,1,1.76-1.48q3.87-1.65,7.83-3.09a16.26,16.26,0,0,1,3-.64c3.19-.51,6.37-1,9.56-1.48l.17.53c-.53.68-1,1.36-1.59,2-.77.92-1.13,1.8-.29,2.95,1,1.37,1.7-.11,3-.32-.38.73-.5,1.43-.83,1.54-2.66.91-4.93,2.86-7.89,2.91l-.06-2.27a7.9,7.9,0,0,1,1,.8c.67.72,1.38.47,1.46-.27a4.3,4.3,0,0,0-.69-2.39c-.16-.3-1-.24-1.45-.34l-.31,2.24-1.53.66a9.87,9.87,0,0,0,.82,1.33C555.32,1357.66,555.69,1357.63,556,1357.69Zm32.73,53.87c0-.83,0-1.49,0-2.15.21-2.31.46-4.61.69-6.92s.44-4.74.72-7.1a3.56,3.56,0,0,0-2.29-3.69c-2.76-.85-5.55-1.6-8.25-2.63-1.41-.54-2.89-1-3.81-2.58-1.64-2.71-3.64-5.21-5.28-7.92a5.4,5.4,0,0,0-4.07-2.63,26.12,26.12,0,0,0-17.72,3.32,17.53,17.53,0,0,0-8.21,11,17.21,17.21,0,0,0,10.89,20.8c1.58.52,3.57.78,3.83,3,.53,4.75-.51,9.39-1.08,14a61.22,61.22,0,0,1-1.36,6.08c-.47,2-.82,4.09-1.45,6-1.06,3.25.61,5.63,3.89,5.36,3.1-.25,6.2-.46,9.29-.69,3.64-.27,6.82-1.28,9.16-4.42,6.12-8.2,12.41-16.27,18.53-24.47a4.28,4.28,0,0,0,.51-3c-.2-1.14-1.31-1.46-2.46-1.37A11.71,11.71,0,0,1,588.68,1411.56Zm-8.48,30a24.51,24.51,0,0,0,2.51-1.64c1.89-1.61,3.75-3.26,5.56-5,1.34-1.25,1.49-2.54.26-3.55a2.37,2.37,0,0,0-3.36.18c-2,1.82-4.12,3.48-6,5.39a3.72,3.72,0,0,0-.84,2.74C578.4,1440.3,579.43,1440.81,580.2,1441.52Z" transform="translate(-508.46 -1343.72)"/><path class="cls-1" d="M565.54,1355c.92-1.86,3.61-2.2,2.67-4.78,1.47-1.74,3.39-1.39,5.57-.84A18.36,18.36,0,0,1,565.54,1355Z" transform="translate(-508.46 -1343.72)"/><path class="cls-1" d="M546.22,1469.11v-5.35a2.38,2.38,0,0,1,2.34,2.7A2.46,2.46,0,0,1,546.22,1469.11Z" transform="translate(-508.46 -1343.72)"/><path class="cls-1" d="M519.67,1470.38c-.35,1.58-.62,3.18-1.09,4.73a1.63,1.63,0,0,1-1.29.83,1.7,1.7,0,0,1-1.25-.88,12.24,12.24,0,0,1-.16-8.66c.31-.94.72-1.69,1.61-1.36a3.11,3.11,0,0,1,1.72,1.8,13.83,13.83,0,0,1,.08,3.47Z" transform="translate(-508.46 -1343.72)"/><path class="cls-1" d="M585,1472.47l1.19-4h.51l1.13,4Z" transform="translate(-508.46 -1343.72)"/><path class="cls-1" d="M588.68,1411.56a11.71,11.71,0,0,0,1.54.09c1.15-.09,2.26.23,2.46,1.37a4.28,4.28,0,0,1-.51,3c-6.12,8.2-12.41,16.27-18.53,24.47-2.34,3.14-5.52,4.15-9.16,4.42-3.09.23-6.19.44-9.29.69-3.28.27-5-2.11-3.89-5.36.63-2,1-4,1.45-6a61.22,61.22,0,0,0,1.36-6.08c.57-4.66,1.61-9.3,1.08-14-.26-2.25-2.25-2.51-3.83-3a17.21,17.21,0,0,1-10.89-20.8,17.53,17.53,0,0,1,8.21-11,26.12,26.12,0,0,1,17.72-3.32,5.4,5.4,0,0,1,4.07,2.63c1.64,2.71,3.64,5.21,5.28,7.92.92,1.54,2.4,2,3.81,2.58,2.7,1,5.49,1.78,8.25,2.63a3.56,3.56,0,0,1,2.29,3.69c-.28,2.36-.48,4.74-.72,7.1s-.48,4.61-.69,6.92C588.63,1410.07,588.68,1410.73,588.68,1411.56Z" transform="translate(-508.46 -1343.72)"/><path class="cls-1" d="M580.2,1441.52c-.77-.71-1.8-1.22-1.88-1.84a3.72,3.72,0,0,1,.84-2.74c1.89-1.91,4-3.57,6-5.39a2.37,2.37,0,0,1,3.36-.18c1.23,1,1.08,2.3-.26,3.55-1.81,1.7-3.67,3.35-5.56,5A24.51,24.51,0,0,1,580.2,1441.52Z" transform="translate(-508.46 -1343.72)"/><path class="cls-1" d="M555.89,1355.5l.31-2.24c.49.1,1.29,0,1.45.34a4.3,4.3,0,0,1,.69,2.39c-.08.74-.79,1-1.46.27a7.9,7.9,0,0,0-1-.8Z" transform="translate(-508.46 -1343.72)"/><path class="cls-1" d="M555.85,1355.46l.06,2.27,0,0c-.26-.06-.63,0-.77-.2a9.87,9.87,0,0,1-.82-1.33l1.53-.66Z" transform="translate(-508.46 -1343.72)"/></svg>