<svg xmlns="http://www.w3.org/2000/svg" viewBox="0 0 271.92 271.85"><g id="Calque_2" data-name="Calque 2"><g id="Calque_1-2" data-name="Calque 1"><path fill="#fff" d="M136.22,0c74-.27,137,61.48,135.68,138.56-1.24,72.24-61.62,134.69-138.74,133.26C60.76,270.48-1,210.36,0,133.74,1,59.84,62.5-.62,136.22,0Zm2.08,26.07c1.38-.06,3.06.36,4.08-.28C146.76,23,151,20,155.19,17a18,18,0,0,0,2.35-2.54c-4.24-2.41-8.78-1.76-12.85,1.65,1.89,2.53,2,2.65-.34,5-1.86,1.86-4,3.39-6.09,5.06-1.79-.78-3.31-2.81-5.59-1.31-2.66,1.74-4.65.86-5.12-2.32s.78-5.74,3-7.89c.74-.69,1.44-1.42,2.64-2.61-1.53,0-2.27,0-3,0a131.62,131.62,0,0,0-46,11.13,11.22,11.22,0,0,0-5.87,5.77c-3.31,6.7-6.83,13.3-10.32,19.9-1.64,3.11-3.61,3.55-5.84.95A103.62,103.62,0,0,1,56.07,41c-2.13,1.8-4.83,3.47-6,7-6.68,21.3-13.57,42.53-20.3,63.81a14.81,14.81,0,0,1-4.88,7.42c-3.85,3.12-7.59,6.38-11.25,9.72a5.12,5.12,0,0,0-1.7,3.14,80,80,0,0,0,.27,9.54,4.52,4.52,0,0,0,1.19,2.65c5.26,5.2,11.17,9.44,18.49,11.23,3.26.79,5.3,2.52,6.13,5.86,1.56,6.27,3.36,12.48,4.92,18.75a12.39,12.39,0,0,1,.3,4.92c-1.37,8.62-3,17.2-4.31,25.82a5,5,0,0,0,1,3.57c2.93,3.45,5.94,6.85,9.18,10,23,22.41,50.7,33.85,82.57,35.37a116.28,116.28,0,0,0,42.42-6c28.85-9.57,51.62-27,67.48-53,16.26-26.69,21.33-55.6,16.62-86.41-.63-4.11-2-6.6-6.43-7a69.17,69.17,0,0,1-7.14-1.49,19,19,0,0,0-3.06,0c1.22,1,1.79,1.59,2.44,2.06,1.77,1.28,3.61,2.46,5.34,3.79,4.3,3.32,4.84,5.44,2.63,10.39A104.73,104.73,0,0,1,236.69,147,63.31,63.31,0,0,1,226,157.15c-5.87,4.37-10.54,2.69-13.21-4.12-4.66-11.87-9.28-23.76-14-35.62-1.22-3.11-2-6.18-1.24-9.55.57-2.45-.52-4.15-2.75-5.33-5.94-3.14-11.85-6.32-17.71-9.61a12.12,12.12,0,0,1-3.59-3C167.7,82.36,162,74.75,156.26,67.21c-2.2-2.88-5.41-3.62-9.47-4.12a36.71,36.71,0,0,1,2.5,4.87c.34,1.06.51,2.74-.08,3.4a14.78,14.78,0,0,1-4.77,3.53,3.82,3.82,0,0,1-3.36-.72,3.31,3.31,0,0,1-.61-3.11c1.43-2.84.59-5.18-.91-7.57A53.58,53.58,0,0,0,136,57.72a6.39,6.39,0,0,0-3.66-2.18,42.32,42.32,0,0,0-7.3-.08,4.14,4.14,0,0,0-4.33,3.42,70.6,70.6,0,0,1-2.58,7.36A8.71,8.71,0,0,1,112.19,72c-3.64,1-7.31,1.89-11,2.68a5.88,5.88,0,0,1-7.25-5.43,71,71,0,0,1,.43-10.3,4.93,4.93,0,0,1,4.09-4.26c2.28-.56,4.59-1,6.9-1.44,4.93-.93,7.48-4.44,6.93-9.93a14.69,14.69,0,0,0-2.41.25,2.81,2.81,0,0,1-3.76-2c-.45-1.77,1-2.62,2.66-3a15,15,0,0,1,1.49-.26c2.47-.3,3.5-1.87,3.72-4.17l-.06,0c2.59-.58,5.19-1.1,7.76-1.77a10.94,10.94,0,0,0,3.76-1.52c3.55-2.7,7.67-3.95,11.88-5C137.61,25.75,138,26,138.3,26.07Z"/><path fill="#fff" d="M130.27,76.68c2.5.23,5,.38,7.51.71,5.67.76,10.22,3.11,13.38,8.27C155,92,159.26,98,163.67,104a14.17,14.17,0,0,0,6.07,4.51c7.06,2.66,14.31,4.81,21.46,7.25,4.35,1.49,6.76,4,6.21,9.5-1.17,11.86-2.08,23.74-3.09,35.61-.26,3.08,0,3.32,3,3.27,4.74-.07,8,2.65,7.61,6.6a7.54,7.54,0,0,1-1.55,3.59q-18,23.55-36,47c-4.46,5.77-9,11.55-13.75,17-3.38,3.87-7.87,5.6-13.19,5.83-9,.39-17.9,1.35-26.85,2a19.82,19.82,0,0,1-3.77-.08c-5.52-.65-7.77-4-6.59-9.53,2.69-12.63,5.58-25.23,7.91-37.93a106.23,106.23,0,0,0,1.54-28.33c-.27-3.15-1.48-5-4.66-5.91a45,45,0,0,1-20.76-12.28c-12.86-13.26-14.74-35.79-4.67-51.3,9.49-14.6,23.57-20.81,39.9-23.46A29.5,29.5,0,0,1,126,77c1.42-.07,2.85,0,4.28,0Z"/><path fill="#fff" d="M195.47,216.47a10.64,10.64,0,0,1-1.8,3.12q-8,7.57-16.35,14.89a5,5,0,0,1-7.42-.38,5.39,5.39,0,0,1,.2-7.68c5.31-5,10.72-9.88,16.18-14.71a5,5,0,0,1,6-.91C194.21,211.84,195.38,213.37,195.47,216.47Z"/><path fill="#fff" d="M114.75,24.8c.72-.78,1.29-1.84,2.15-2.19a2.49,2.49,0,0,1,2.23,1,21.52,21.52,0,0,1,1.92,5.59c.11.63-.93,1.82-1.7,2.13a2.52,2.52,0,0,1-2.26-.93A49.18,49.18,0,0,1,114.75,24.8Z"/><path fill="#fff" d="M114,34.11c-.74-.45-1.85-.74-2.13-1.39a7.05,7.05,0,0,1-.39-3.56c0-.26,2.26-.71,2.49-.38a8.08,8.08,0,0,1,1.28,3.59c.06.52-.83,1.16-1.3,1.76Z"/></g></g></svg>